<svg width="500" height="47" xmlns="http://www.w3.org/2000/svg"><path d="M29.857 41.783c5.774-.002 9.398-.37 11.056-1.66 1.843-1.472 2.088-3.99 2.088-8.04-.001-3.987-.615-5.706-3.687-6.687-.983-.307-4.608-.86-10.38-.857h-9.83c-5.773.001-9.398.37-11.055 1.659-1.843 1.472-2.088 4.05-2.088 8.04.001 3.927.616 5.706 3.687 6.688.983.306 4.607.858 10.381.858l9.828-.001zM16.77 19.69l17.752-.002c11.057-.002 14.129 3.435 14.13 12.824 0 5.891-.429 9.266-4.36 11.906-2.763 1.84-7.247 2.578-13.635 2.58L18.924 47c-6.511.001-11.302-.244-15.05-3.005C.067 41.173.005 37 .003 30.678L0 13.495C0 4.965 5.28 1.282 16.277 1.281l12.161-.002c6.757 0 11.549.182 14.497 1.594 3.317 1.533 5.099 4.356 5.1 7.854v3.744H42.63c.06-.552.06-1.043.06-1.534 0-5.953-3.379-6.75-12.654-6.749l-13.575.002c-8.599.002-10.626 2.396-10.626 8.839l.003 10.248c1.596-4.725 4.728-5.584 10.932-5.586zm52.7-13.604c-4.644.002-7.515.803-9.226 3.33-1.466 2.156-1.525 4.99-1.525 8.75V30.18c.002 3.759.064 6.593 1.53 8.749 1.711 2.525 4.644 3.265 9.227 3.264l18.086-.002c4.644 0 7.515-.741 9.225-3.268 1.466-2.157 1.527-4.93 1.527-8.749l-.001-.863v-10.29c-.002-4.251-.002-7.27-1.53-9.611-1.65-2.526-4.583-3.327-9.226-3.326l-18.086.002zM57.44 43.86c-3.057-2.65-4.096-6.84-4.097-13.187l-.002-12.198c0-6.84.976-11.338 4.031-14.05 3.116-2.772 7.698-3.142 14.48-3.144l13.382-.002c6.782-.001 11.425.369 14.481 3.14 2.81 2.526 4.034 6.901 4.035 13.494l.001 12.446c.002 6.592-1.159 10.906-4.03 13.494-3.178 2.835-7.943 3.143-14.969 3.144L71.92 47c-6.72 0-11.303-.37-14.48-3.14zm67.421 1.968l-.008-44.54h7.901l26.565 38.714L185.87 1.28l8.144-.001.006 44.54h-5.347L188.67 6.61l-27.161 39.213h-4.133L130.203 6.618l.006 39.208-5.348.002zm80.303 0l-.006-44.548 5.27-.001.006 44.547-5.27.002zm16.415 0l-.008-44.542 8.614-.002 39.854 39.452-.006-39.456 5.46-.001.005 44.542h-8.006l-40.46-40.064.006 40.07h-5.46zm68.6-2.539c-3.093-2.637-4.124-6.806-4.126-13.123l-.004-28.88 5.64-.001.004 27.347v1.533c0 3.312.063 5.826 1.517 7.91 1.698 2.515 4.67 3.25 9.277 3.25l18.13-.004c4.608 0 7.58-.736 9.277-3.25 1.454-2.085 1.515-4.6 1.515-7.911v-1.533l-.006-27.347 5.639-.001.004 28.574c.001 6.56-1.15 10.854-4.058 13.429-3.094 2.76-7.763 3.129-14.673 3.13l-13.462.002c-6.79 0-11.46-.368-14.674-3.125zm75.206 2.539l-.007-39.582-21.882.002-.002-4.963 49.238-.006v4.963l-21.883.003.006 39.582h-5.47zm34.38-44.542l43.37-.007.002 4.963-38.041.006.002 13.969 36.465-.005v4.962l-36.465.004.003 15.685 38.04-.005v4.962l-43.37.008-.005-44.542zm55.942 30.033c-.06 1.165-.12 2.025-.12 2.638 0 6.075 3.827 7.487 12.941 7.486l11.545-.002c10.752-.001 14.459-1.167 14.459-8.655-.002-6.32-2.797-7.363-9.724-7.363l-18.652.003c-11.484.002-15.98-3.067-15.98-12.272-.001-9.94 5.648-12.458 19.015-12.46l10.025-.001c8.14-.001 13.487.182 16.65 2.821 2.125 1.84 2.976 4.724 2.976 8.836v1.288h-5.286v-.673c0-6.444-2.735-7.487-10.938-7.486l-15.066.002c-8.689.002-11.666 1.413-11.666 7.426.002 6.568 3.526 7.549 12.033 7.548l15.856-.003c5.529 0 9.479.244 12.031 1.779 3.341 2.023 4.192 5.339 4.194 10.86 0 10.25-4.92 13.32-18.226 13.321l-15.007.002c-11.544.002-16.465-3.127-16.467-11.718 0-.984.06-2.088.12-3.377h5.287z" fill="#F2F2F2" fill-rule="evenodd"/></svg>